<svg width="60" height="60" viewBox="0 0 60 60" fill="none" xmlns="http://www.w3.org/2000/svg">
<g clip-path="url(#clip0_1_64)">
<path opacity="0.06" d="M30 60C46.5685 60 60 46.5685 60 30C60 13.4315 46.5685 0 30 0C13.4315 0 0 13.4315 0 30C0 46.5685 13.4315 60 30 60Z" fill="#FB0000"/>
<path d="M26.895 36.936L20.603 30.643C20.5131 30.5531 20.4418 30.4464 20.3931 30.329C20.3445 30.2115 20.3195 30.0857 20.3195 29.9585C20.3195 29.8314 20.3445 29.7055 20.3931 29.5881C20.4418 29.4706 20.5131 29.3639 20.603 29.274L21.972 27.904C22.0619 27.8141 22.1686 27.7428 22.286 27.6942C22.4035 27.6455 22.5294 27.6205 22.6565 27.6205C22.7836 27.6205 22.9095 27.6455 23.027 27.6942C23.1444 27.7428 23.2511 27.8141 23.341 27.904L27.579 32.144L36.659 23.065C36.7489 22.9751 36.8556 22.9038 36.973 22.8552C37.0905 22.8065 37.2164 22.7815 37.3435 22.7815C37.4706 22.7815 37.5965 22.8065 37.7139 22.8552C37.8314 22.9038 37.9381 22.9751 38.028 23.065L39.397 24.434C39.4869 24.5239 39.5582 24.6306 39.6068 24.7481C39.6555 24.8655 39.6805 24.9914 39.6805 25.1185C39.6805 25.2457 39.6555 25.3715 39.6068 25.489C39.5582 25.6064 39.4869 25.7131 39.397 25.803L28.264 36.936C28.1741 37.0259 28.0674 37.0972 27.95 37.1459C27.8325 37.1945 27.7066 37.2196 27.5795 37.2196C27.4524 37.2196 27.3265 37.1945 27.209 37.1459C27.0916 37.0972 26.9849 37.0259 26.895 36.936Z" fill="#FB0000"/>
</g>
<defs>
<clipPath id="clip0_1_64">
<rect width="60" height="60" fill="white"/>
</clipPath>
</defs>
</svg>
