<svg width="38" height="64" viewBox="0 0 38 64" fill="none" xmlns="http://www.w3.org/2000/svg">
<g clip-path="url(#clip0_1_181)">
<path d="M37.0581 7.55017C37.0204 7.43346 36.96 7.32534 36.8804 7.23197C36.8009 7.1386 36.7037 7.06182 36.5945 7.006C36.4852 6.95019 36.3661 6.91643 36.2438 6.90667C36.1215 6.8969 35.9985 6.91132 35.8818 6.94909C35.6461 7.02537 35.4504 7.19216 35.3377 7.41277C35.2818 7.522 35.2481 7.64116 35.2383 7.76343C35.2286 7.88571 35.243 8.00871 35.2807 8.12542C35.7107 9.44994 35.7291 10.8737 35.3334 12.2089L30.697 27.9756H29.0836C30.174 22.3413 31.2655 16.7073 32.3579 11.0736C32.8135 8.75363 32.6536 6.35482 31.894 4.11588C32.6272 4.49421 33.2854 5.0028 33.8365 5.6168C33.9186 5.70803 34.0178 5.78221 34.1285 5.8351C34.2393 5.88799 34.3593 5.91855 34.4819 5.92504C34.6044 5.93153 34.727 5.91382 34.8427 5.87292C34.9584 5.83202 35.0649 5.76874 35.1562 5.68668C35.2474 5.60462 35.3216 5.50539 35.3745 5.39466C35.4274 5.28393 35.4579 5.16387 35.4644 5.04133C35.4709 4.91879 35.4532 4.79618 35.4123 4.68048C35.3714 4.56479 35.3081 4.45828 35.226 4.36704C33.9772 2.97277 32.3092 2.02199 30.4731 1.65789C22.9087 0.128499 15.1146 0.128499 7.55019 1.65789C6.35953 1.90092 5.23238 2.38875 4.24024 3.09044C3.24809 3.79214 2.41261 4.69237 1.78679 5.73404C1.16097 6.7757 0.758476 7.93607 0.604835 9.14152C0.451194 10.347 0.549762 11.5712 0.894287 12.7365L2.31925 17.5836L5.37578 27.9766C4.66452 27.9884 3.97777 28.2385 3.42546 28.6868C2.87316 29.1351 2.48723 29.7558 2.32945 30.4494C2.17168 31.143 2.25119 31.8696 2.55524 32.5127C2.8593 33.1558 3.37032 33.6783 4.00652 33.9965C3.97107 34.7055 3.95284 35.4144 3.95284 36.1375C3.93319 40.2079 4.54159 44.257 5.75658 48.1418C5.83273 48.3777 5.99944 48.5736 6.22004 48.6865C6.44065 48.7994 6.69707 48.8201 6.93291 48.7439C7.16874 48.6678 7.36466 48.5011 7.47758 48.2805C7.59049 48.0599 7.61114 47.8034 7.53499 47.5676C6.37956 43.868 5.80157 40.0123 5.82139 36.1365C5.82139 35.5288 5.83557 34.9293 5.8619 34.3328H32.1574C32.1837 34.9283 32.1979 35.5319 32.1979 36.1365C32.2284 40.3671 31.533 44.5717 30.142 48.5672C29.1286 51.6309 27.4188 54.4181 25.147 56.7098H12.8692C11.1393 55.0002 9.74861 52.9786 8.77057 50.7517C8.66253 50.5337 8.47374 50.3664 8.24431 50.2854C8.01489 50.2044 7.76291 50.216 7.54191 50.3178C7.32091 50.4196 7.14831 50.6035 7.06078 50.8305C6.97326 51.0576 6.9777 51.3098 7.07317 51.5336C7.91436 53.4103 9.00889 55.1629 10.3262 56.7422C9.47921 56.8568 8.70744 57.289 8.16724 57.9513C7.62704 58.6136 7.3588 59.4565 7.41687 60.3092C7.47495 61.1619 7.85499 61.9607 8.48 62.5436C9.10501 63.1266 9.92826 63.4502 10.7829 63.4488H27.2363C28.0922 63.4516 28.917 63.1285 29.5432 62.5452C30.1695 61.9619 30.5502 61.1621 30.6081 60.3082C30.666 59.4543 30.3967 58.6104 29.8549 57.9479C29.3131 57.2854 28.5394 56.854 27.6911 56.7412C31.6631 52.0825 34.0715 44.4371 34.0715 36.1365C34.0715 35.4185 34.0533 34.7014 34.0178 33.9955C34.6538 33.6768 35.1645 33.1538 35.4681 32.5104C35.7716 31.8671 35.8505 31.1404 35.6922 30.4469C35.5338 29.7533 35.1473 29.1329 34.5946 28.6851C34.0418 28.2372 33.3548 27.9878 32.6435 27.9766C34.137 22.8966 35.6305 17.8166 37.124 12.7365C37.6263 11.0407 37.604 9.23248 37.0581 7.55017ZM28.7362 60.0793C28.736 60.4771 28.5779 60.8586 28.2967 61.14C28.0155 61.4214 27.6341 61.5797 27.2363 61.5802H10.7829C10.3849 61.5802 10.0031 61.4221 9.72163 61.1406C9.44015 60.8591 9.28202 60.4774 9.28202 60.0793C9.28202 59.6812 9.44015 59.2995 9.72163 59.018C10.0031 58.7365 10.3849 58.5784 10.7829 58.5784H27.2363C27.6341 58.5789 28.0155 58.7373 28.2967 59.0187C28.5779 59.3 28.736 59.6815 28.7362 60.0793ZM30.5228 10.7181C29.408 16.4699 28.294 22.2224 27.1806 27.9756H23.9236L25.3587 10.9743C25.6099 8.2028 25.4392 5.4092 24.8523 2.68889C26.4119 2.85296 27.9689 3.08285 29.5232 3.37858C30.6715 5.64332 31.0229 8.22902 30.5207 10.7181H30.5228ZM22.8744 2.51469C23.5532 5.22728 23.7638 8.03587 23.4972 10.8194L22.0489 27.9777H15.9724L14.5241 10.8194C14.2572 8.03588 14.4678 5.22723 15.1469 2.51469C17.72 2.33556 20.3013 2.33556 22.8744 2.51469ZM10.8397 27.9756L7.49752 10.7181C6.99492 8.22903 7.34638 5.6432 8.4951 3.37858C10.048 3.08285 11.605 2.85296 13.166 2.68889C12.5788 5.40916 12.4081 8.2028 12.6596 10.9743L14.0957 27.9756H10.8397ZM2.68688 12.2089C2.41675 11.2865 2.3409 10.3181 2.46415 9.3649C2.5874 8.4117 2.90705 7.49443 3.40291 6.67109C4.05477 5.58154 4.99845 4.69609 6.12725 4.11486C5.36754 6.35377 5.20762 8.75263 5.6634 11.0726L8.93666 27.9756H7.32434L4.11185 17.056L2.68688 12.2089ZM33.9014 31.1547C33.8998 31.5018 33.7612 31.8342 33.5157 32.0796C33.2703 32.325 32.9379 32.4636 32.5908 32.4652H5.42844C5.08087 32.4652 4.74753 32.3272 4.50176 32.0814C4.25599 31.8356 4.11792 31.5023 4.11792 31.1547C4.11792 30.8071 4.25599 30.4738 4.50176 30.228C4.74753 29.9823 5.08087 29.8442 5.42844 29.8442H32.5908C32.9379 29.8458 33.2703 29.9844 33.5157 30.2298C33.7612 30.4752 33.8998 30.8076 33.9014 31.1547Z" fill="#FB0000" stroke="#FB0000" stroke-width="0.999973"/>
</g>
<defs>
<clipPath id="clip0_1_181">
<rect width="37.52" height="63.1483" fill="white" transform="scale(1.01279)"/>
</clipPath>
</defs>
</svg>
