<svg width="64" height="64" viewBox="0 0 64 64" fill="none" xmlns="http://www.w3.org/2000/svg">
<g clip-path="url(#clip0_1_167)">
<path d="M62.1191 17.3976L61.2668 16.5443L61.2578 16.5343L47.4648 2.74234L46.6035 1.88097C45.72 0.999511 44.5229 0.504485 43.2749 0.504485C42.0268 0.504485 40.8298 0.999511 39.9463 1.88097L29.6008 12.2254C28.7193 13.1089 28.2243 14.306 28.2243 15.554C28.2243 16.802 28.7193 17.9991 29.6008 18.8826L29.7217 19.0035L26.0778 22.6394C24.5031 24.214 23.1118 25.6446 21.8294 27.0047C21.2249 27.6414 20.6204 28.2831 20.016 28.9299C17.9527 31.1402 15.9247 33.4019 13.9602 35.6858C13.7036 35.984 13.4474 36.2825 13.1915 36.5814C9.42569 40.987 5.76464 45.585 2.31111 50.2424L2.08746 50.5446C0.938917 52.114 0.387071 54.0413 0.530892 55.9808C0.674713 57.9202 1.50479 59.745 2.87226 61.1278C4.25588 62.497 6.08262 63.3276 8.02394 63.4701C9.96525 63.6127 11.8937 63.0579 13.4625 61.9056L13.7497 61.69C18.3708 58.2788 22.9174 54.657 27.2696 50.9275C27.2837 50.9164 27.2978 50.9063 27.3109 50.8952C30.6354 48.0744 33.9338 45.1034 37.1012 42.075L37.1214 42.0539C38.5449 40.6989 39.9704 39.3086 41.3607 37.9233L44.9956 34.2804L45.1185 34.4033C46.0021 35.2845 47.1991 35.7794 48.4471 35.7794C49.695 35.7794 50.892 35.2845 51.7757 34.4033L62.1201 24.0548C63.0015 23.1712 63.4963 21.9741 63.4961 20.726C63.4959 19.478 63.0007 18.281 62.1191 17.3976ZM59.0303 17.2778L53.7392 22.5699C53.7065 22.6004 53.6635 22.6174 53.6188 22.6174C53.5741 22.6174 53.5311 22.6004 53.4984 22.5699L41.4302 10.5007C41.3991 10.4684 41.3815 10.4256 41.3809 10.3808C41.3808 10.3585 41.3851 10.3365 41.3936 10.3159C41.4021 10.2954 41.4145 10.2767 41.4302 10.2609L46.7223 4.96879L52.901 11.1475L59.0303 17.2778ZM12.4954 60.0086L12.2062 60.2252C11.0456 61.0861 9.61425 61.5015 8.173 61.3957C6.73175 61.2898 5.37648 60.6697 4.35407 59.6484C3.33165 58.6271 2.71013 57.2725 2.60272 55.8314C2.49532 54.3902 2.90917 52.9585 3.76889 51.7969L3.99254 51.4946C7.08641 47.3198 10.3475 43.1993 13.7013 39.2219C14.878 41.6649 16.4757 43.8815 18.4212 45.7703C20.2436 47.6386 22.3639 49.1907 24.6955 50.3633C20.7564 53.6929 16.6592 56.9379 12.4954 60.0086ZM39.8727 36.4343C38.4885 37.8196 37.069 39.2038 35.6485 40.5548C32.9123 43.1631 30.0904 45.724 27.2424 48.1842L26.9885 48.4028L26.4495 48.8642C24.0019 47.7565 21.7835 46.2 19.9092 44.2753C17.9059 42.3337 16.3075 40.0141 15.2064 37.4509L15.4442 37.1738L16.0114 36.5159C16.2129 36.2802 16.4177 36.0451 16.6259 35.8107L16.9765 35.4078C17.2452 35.0988 17.5172 34.7905 17.7925 34.4829L17.9809 34.2693C18.2952 33.9161 18.6106 33.5638 18.9269 33.2125L19.0216 33.1118C19.3474 32.7504 19.6744 32.3905 20.0029 32.0318L20.0956 31.9311C20.3844 31.6154 20.6745 31.3007 20.966 30.9871L21.2007 30.7332C21.374 30.5458 21.5493 30.3605 21.7236 30.1741C22.2609 29.5971 22.8026 29.0236 23.3486 28.4534L23.3667 28.4322C24.6361 27.0873 26.0082 25.6768 27.5617 24.1234L31.2077 20.4875L43.5116 32.7934L39.8727 36.4343ZM60.6362 22.5699L50.2907 32.9153C49.8015 33.4038 49.1384 33.6782 48.4471 33.6782C47.7558 33.6782 47.0927 33.4038 46.6035 32.9153L45.7693 32.0812C45.7592 32.0701 45.7491 32.058 45.7381 32.0469L31.9512 18.26C31.9371 18.2459 31.922 18.2338 31.9068 18.2197L31.0858 17.3987C30.5978 16.9092 30.3238 16.2462 30.3238 15.555C30.3238 14.8639 30.5978 14.2009 31.0858 13.7114L41.4302 3.36595C41.9197 2.87797 42.5827 2.60395 43.2739 2.60395C43.965 2.60395 44.628 2.87797 45.1175 3.36595L45.2374 3.48583L39.9463 8.77694C39.7356 8.98761 39.5684 9.23773 39.4544 9.51301C39.3404 9.78829 39.2817 10.0833 39.2817 10.3813C39.2817 10.6793 39.3404 10.9743 39.4544 11.2496C39.5684 11.5249 39.7356 11.775 39.9463 11.9857L52.0144 24.0548C52.2251 24.2657 52.4753 24.433 52.7507 24.5471C53.0261 24.6612 53.3212 24.72 53.6193 24.72C53.9174 24.72 54.2126 24.6612 54.4879 24.5471C54.7633 24.433 55.0135 24.2657 55.2242 24.0548L60.5153 18.7627L60.6362 18.8836C61.1238 19.3731 61.3977 20.0358 61.3977 20.7268C61.3977 21.4177 61.1238 22.0804 60.6362 22.5699Z" fill="#FB0000" stroke="#FB0000" stroke-width="0.999953"/>
<path d="M37.9828 17.3976C37.8853 17.3 37.7695 17.2227 37.6421 17.1699C37.5147 17.1172 37.3782 17.09 37.2403 17.09C37.1024 17.09 36.9658 17.1172 36.8384 17.1699C36.711 17.2227 36.5953 17.3 36.4978 17.3976C36.4003 17.4951 36.3229 17.6108 36.2702 17.7382C36.2174 17.8656 36.1902 18.0022 36.1902 18.1401C36.1902 18.278 36.2174 18.4145 36.2702 18.5419C36.3229 18.6693 36.4003 18.7851 36.4978 18.8826L40.8078 23.1937C41.0048 23.3906 41.2719 23.5012 41.5504 23.5012C41.8289 23.5012 42.096 23.3906 42.2929 23.1937C42.4898 22.9967 42.6004 22.7296 42.6004 22.4511C42.6004 22.1726 42.4898 21.9056 42.2929 21.7086L37.9828 17.3976Z" fill="#FB0000" stroke="#FB0000" stroke-width="0.999953"/>
<path d="M45.7401 25.1551C45.5413 24.9667 45.2769 24.8634 45.003 24.8672C44.7292 24.8709 44.4677 24.9814 44.2741 25.1751C44.0806 25.3688 43.9703 25.6304 43.9667 25.9042C43.9631 26.1781 44.0666 26.4424 44.2551 26.6411L45.1175 27.5035C45.3145 27.7005 45.5818 27.811 45.8604 27.8109C46.139 27.8109 46.4061 27.7001 46.603 27.503C46.8 27.306 46.9105 27.0387 46.9104 26.7601C46.9104 26.4816 46.7996 26.2144 46.6025 26.0175L45.7401 25.1551Z" fill="#FB0000" stroke="#FB0000" stroke-width="0.999953"/>
<path d="M30.4453 28.6237C28.8244 29.1115 27.3497 29.9932 26.1527 31.1901C24.9558 32.387 24.0741 33.8618 23.5863 35.4827C23.3522 36.1779 23.3068 36.9228 23.4548 37.6413C23.6028 38.3597 23.9388 39.0261 24.4286 39.5721C24.7846 39.9131 25.2054 40.1793 25.666 40.3549C26.1267 40.5306 26.6178 40.6121 27.1105 40.5947C29.2924 40.4451 31.333 39.4612 32.8089 37.8473C35.643 35.0132 36.3996 31.3318 34.5327 29.466C33.9869 28.9764 33.3209 28.6405 32.6028 28.4926C31.8847 28.3446 31.1402 28.3899 30.4453 28.6237ZM31.3239 36.3633C29.2212 38.4659 26.7841 38.9576 25.9116 38.0871C25.6917 37.7904 25.5498 37.4432 25.4991 37.0774C25.4484 36.7115 25.4905 36.3388 25.6215 35.9935C26.0166 34.7418 26.7076 33.6037 27.6358 32.6756C28.5641 31.7476 29.7023 31.0568 30.9541 30.6619C31.2454 30.586 31.5448 30.5461 31.8457 30.543C32.2839 30.5132 32.7161 30.6581 33.0477 30.946C33.9202 31.8225 33.4265 34.2596 31.3239 36.3623V36.3633Z" fill="#FB0000" stroke="#FB0000" stroke-width="0.999953"/>
</g>
<defs>
<clipPath id="clip0_1_167">
<rect width="63.524" height="63.52" fill="white" transform="scale(1.00749)"/>
</clipPath>
</defs>
</svg>
