<svg width="70" height="64" viewBox="0 0 70 64" fill="none" xmlns="http://www.w3.org/2000/svg">
<g clip-path="url(#clip0_1_189)">
<path d="M68.6593 6.07779L65.6431 4.22113C65.4228 4.08543 65.1638 4.02646 64.9064 4.05344C64.6491 4.08041 64.408 4.1918 64.2206 4.37022L62.5694 5.93977C61.824 6.651 60.9181 7.17212 59.9286 7.45902C58.939 7.74591 57.8949 7.79012 56.8846 7.5879C56.8122 5.81153 56.0987 4.12154 54.8762 2.8307C53.6537 1.53987 52.0049 0.735592 50.2351 0.566723C48.4653 0.397853 46.6942 0.875825 45.2497 1.91218C43.8051 2.94853 42.7849 4.4731 42.3779 6.20372C41.8574 8.40727 41.2626 10.59 40.5937 12.7519H40.1293C37.637 12.7435 35.2416 13.7167 33.4612 15.4608C32.1205 16.7752 30.3168 17.5097 28.4393 17.5059H4.13643C3.36715 15.9393 2.96715 14.2172 2.96715 12.4718C2.96715 10.7265 3.36715 9.00443 4.13643 7.4378H38.1457C38.4567 7.4378 38.755 7.31425 38.9749 7.09434C39.1948 6.87443 39.3183 6.57617 39.3183 6.26517C39.3183 5.95417 39.1948 5.65591 38.9749 5.43599C38.755 5.21608 38.4567 5.09254 38.1457 5.09254H3.4262C3.21799 5.09252 3.01352 5.14794 2.83381 5.25311C2.65411 5.35828 2.50564 5.5094 2.40368 5.69094C1.25282 7.72705 0.639647 10.0228 0.622021 12.3616C0.604395 14.7004 1.18289 17.0051 2.30294 19.0583L2.40368 19.2376C2.50428 19.4235 2.65326 19.5788 2.83485 19.687C3.01644 19.7951 3.2239 19.8522 3.43527 19.8522H28.4443C30.9343 19.8576 33.3265 18.8835 35.1043 17.1402C36.372 15.8973 38.057 15.1707 39.8311 15.1022C35.2805 28.6156 27.938 41.0205 18.2805 51.5111C17.334 52.527 16.8059 53.8627 16.8016 55.2512C16.7973 56.6396 17.3172 57.9785 18.2573 59.0002L20.7094 61.687C21.2274 62.2534 21.857 62.7065 22.5587 63.0177C23.2604 63.3289 24.0188 63.4915 24.7864 63.4953H24.8065C25.5665 63.4948 26.3182 63.3377 27.0148 63.0338C27.7114 62.73 28.3379 62.2859 28.8553 61.7293C41.1593 48.4499 50.1925 32.4809 55.2355 15.0941H59.0969C61.3898 15.0908 63.6182 14.3345 65.4394 12.9414C67.2606 11.5483 68.5738 9.59553 69.1771 7.3834C69.2433 7.13904 69.2286 6.87982 69.1353 6.64449C69.0419 6.40916 68.8749 6.21035 68.6593 6.07779ZM54.5232 8.31928C54.5232 8.3344 54.5232 8.3485 54.5232 8.36361C54.5022 8.57098 54.4686 8.77688 54.4225 8.98015C49.8986 28.1014 40.5007 45.7255 27.1437 60.1366C26.8478 60.4585 26.4878 60.7151 26.0868 60.8898C25.6859 61.0645 25.2529 61.1535 24.8156 61.1511H24.7975C24.3538 61.1519 23.9148 61.0595 23.5091 60.8799C23.1033 60.7003 22.7398 60.4374 22.4421 60.1084L19.9901 57.4216C19.4479 56.8319 19.1484 56.0592 19.1514 55.2581C19.1544 54.457 19.4597 53.6865 20.0062 53.1008C32.0596 40.0151 40.5482 24.0516 44.6576 6.74168C44.8764 5.79469 45.3659 4.93179 46.0665 4.25812C46.767 3.58445 47.6484 3.1291 48.6033 2.94758C49.5581 2.76605 50.5451 2.86618 51.444 3.23577C52.3429 3.60535 53.1149 4.22843 53.6659 5.02907C54.3351 5.98841 54.6391 7.15539 54.5232 8.31928ZM59.0959 12.7519H55.8853C56.1351 11.8117 56.3732 10.8687 56.5995 9.92309C57.9542 10.1664 59.3472 10.0866 60.6653 9.69034C61.9834 9.29403 63.1894 8.59235 64.1853 7.6423L65.1817 6.69533L66.6414 7.59395C66.0466 9.11121 65.0089 10.4143 63.6633 11.3337C62.3177 12.2531 60.7266 12.7462 59.0969 12.7489L59.0959 12.7519Z" fill="#FB0000" stroke="#FB0000" stroke-width="1.00002"/>
<path d="M22.7202 56.5463C23.4407 56.5463 24.0248 55.9622 24.0248 55.2417C24.0248 54.5212 23.4407 53.9371 22.7202 53.9371C21.9997 53.9371 21.4156 54.5212 21.4156 55.2417C21.4156 55.9622 21.9997 56.5463 22.7202 56.5463Z" fill="#FB0000" stroke="#FB0000" stroke-width="1.00002"/>
</g>
<defs>
<clipPath id="clip0_1_189">
<rect width="69.2281" height="63.53" fill="white" transform="scale(1.0074)"/>
</clipPath>
</defs>
</svg>
